<svg width="53" height="54" xmlns="http://www.w3.org/2000/svg"><path d="M2.105 33.424H6.45c.513 1.15 1.432 1.966 2.56 2.252-.86 3.25 2.006 6.344 4.908 5.204.554 2.383 2.887 3.75 4.972 2.941.717 3.128 4.35 4.21 6.4 1.932l.631-.7.631.7c.724.803 1.686 1.247 2.709 1.247 1.724 0 3.271-1.322 3.694-3.179 2.257.879 4.748-.815 5.058-3.451 2.425.376 4.555-1.883 4.326-4.593 1.324-.136 2.467-1.036 3.053-2.354h4.502c1.475 0 1.475-2.537 0-2.537h-4.149c-.12-.86-.468-1.686-1.063-2.348l-4.1-4.552c-2.418-2.683-6.68-.614-6.512 3.194-2.364.118-4.066 2.65-3.534 5.198-1.912.405-3.232 2.392-3.054 4.534-2.684.26-4.278 3.55-3.034 6.186l-.776.86c-1.407 1.562-3.59-.851-2.187-2.42l5.937-6.589c1.043-1.156-.574-2.953-1.617-1.794l-7.089 7.869h-.001a1.46 1.46 0 0 1-1.092.503c-1.353.001-2.04-1.873-1.089-2.93l7.088-7.865c1.042-1.157-.576-2.953-1.617-1.795l-8.247 9.154c-1.41 1.565-3.591-.864-2.182-2.428l8.245-9.15c1.042-1.157-.574-2.953-1.617-1.795l-7.247 8.043c-1.41 1.559-3.588-.865-2.18-2.428l11.245-12.48h5.792c2.095 2.187 5.07 4.035 8.042 3.35 1.306-.3 2.578-1.146 3.132-2.543.598-1.508.112-3.157-.902-4.281l-4.36-4.84h3.603c.633 0 1.297.734 1.74 1.155.703.67 1.362 1.398 2.047 2.091 1.252 1.269 2.764 2.707 4.559 2.707h6.219c1.475 0 1.475-2.537 0-2.537h-6.219c-.736 0-1.436-.59-1.988-1.068-.701-.609-1.343-1.298-1.992-1.974C38.52 8.687 37.072 7 35.33 7H16.67c-1.743 0-3.19 1.688-4.366 2.913-.698.729-1.39 1.476-2.158 2.115-.513.427-1.15.927-1.822.927H2.105c-1.473 0-1.473 2.537 0 2.537h6.22c1.794 0 3.306-1.44 4.558-2.707.686-.693 1.344-1.42 2.048-2.091.442-.421 1.106-1.155 1.739-1.155h10.783c.866 0 1.258.243 1.612.635l5.405 5.999c1.006 1.114.189 2.215-.965 2.516a3.892 3.892 0 0 1-1.47.07c-.932-.12-1.822-.512-2.627-1.036-.58-.377-1.12-.825-1.626-1.315-.447-.433-.852-1.095-1.504-1.095h-6.729c-.303 0-.594.134-.809.372L7.16 28.538c-.595.662-.942 1.49-1.063 2.349H2.105c-1.473 0-1.473 2.537 0 2.537zm40.961-.666a1.471 1.471 0 0 1-2.181.003l-4.104-4.555c-1.41-1.565.773-3.988 2.183-2.424l4.1 4.551c.603.669.603 1.758.002 2.425zm-3.43 4.63c-.603.668-1.582.67-2.184 0l-4.288-4.758c-1.41-1.565.775-3.987 2.184-2.424l4.288 4.758c.603.669.603 1.756 0 2.425zm-9.455.366c-1.408-1.564.775-3.987 2.183-2.423l2.946 3.27c.954 1.056.256 2.926-1.091 2.926-.412 0-.8-.178-1.093-.503 0-.002-2.943-3.267-2.945-3.27zm-3.452 4.605c-.951-1.055-.264-2.926 1.09-2.926.407 0 .802.18 1.09.501l1.453 1.611c1.387 1.568-.788 3.975-2.191 2.415l-1.442-1.6z" fill="#D60968"/></svg>