<svg width="41" height="33" xmlns="http://www.w3.org/2000/svg"><path d="M20 30.828c-8.172 0-14.828-6.656-14.828-14.828S11.828 1.172 20 1.172 34.828 7.828 34.828 16 28.172 30.828 20 30.828zM20 3.24C12.966 3.241 7.241 8.966 7.241 16S12.966 28.759 20 28.759c7.034 0 12.759-5.725 12.759-12.759 0-7.034-5.725-12.759-12.759-12.759zM20 24c-4.414 0-8-3.586-8-8 0-2.31 1-4.517 2.759-6.034.448-.38 1.069-.345 1.448.103.38.448.345 1.069-.104 1.448a5.914 5.914 0 0 0-.586 8.38 5.914 5.914 0 0 0 8.38.586c2.482-2.173 2.758-5.897.586-8.38a4.707 4.707 0 0 0-.586-.586 1.004 1.004 0 0 1-.104-1.448c.38-.414 1.035-.483 1.448-.103 3.345 2.896 3.69 7.965.793 11.275A7.969 7.969 0 0 1 20 24zm0-9.38a1.016 1.016 0 0 1-1.034-1.034V7.38c0-.586.448-1.034 1.034-1.034.586 0 1.034.448 1.034 1.034v6.207c0 .552-.448 1.035-1.034 1.035z" fill="#D60968"/></svg>