<svg width="88" height="90" xmlns="http://www.w3.org/2000/svg"><path d="M68.844 42.753V12.188C68.844 5.468 63.376 0 56.656 0H12.594C5.874 0 .406 5.468.406 12.188v56.25c0 6.721 5.468 12.188 12.188 12.188h32.129C49.098 86.318 55.969 90 63.688 90c13.183 0 23.906-10.725 23.906-23.906 0-11.41-8.039-20.975-18.75-23.341zM41.51 75H12.594a6.57 6.57 0 0 1-6.563-6.563v-56.25a6.57 6.57 0 0 1 6.563-6.563h44.063a6.57 6.57 0 0 1 6.563 6.563v30.011c-12.967.253-23.438 10.87-23.438 23.896 0 3.147.617 6.15 1.728 8.906zm22.178 9.375c-10.08 0-18.28-8.201-18.28-18.281 0-10.08 8.2-18.281 18.28-18.281 10.08 0 18.281 8.201 18.281 18.281 0 10.08-8.201 18.281-18.281 18.281z"/><path d="M72.125 63.281H66.5v-5.625a2.812 2.812 0 0 0-2.813-2.813 2.812 2.812 0 0 0-2.813 2.813v5.625H55.25a2.812 2.812 0 1 0 0 5.626h5.625v5.625a2.813 2.813 0 0 0 5.626 0v-5.625h5.625a2.814 2.814 0 0 0-.001-5.626zM20.094 24.375h29.063a2.813 2.813 0 0 0 0-5.626H20.094a2.813 2.813 0 0 0 0 5.626zm31.877 13.593a2.812 2.812 0 0 0-2.813-2.813H20.094a2.813 2.813 0 0 0 0 5.626h29.063a2.814 2.814 0 0 0 2.814-2.813zM35.094 51.563h-15a2.812 2.812 0 1 0 0 5.626h15a2.813 2.813 0 0 0 0-5.626z"/></svg>