<?xml version="1.0" encoding="UTF-8"?>
<svg width="40px" height="43px" viewBox="0 0 40 43" version="1.1" xmlns="http://www.w3.org/2000/svg" xmlns:xlink="http://www.w3.org/1999/xlink">
    <!-- Generator: Sketch 49.1 (51147) - http://www.bohemiancoding.com/sketch -->
    <title>[DASHBOARD]MESSAGERIE</title>
    <desc>Created with Sketch.</desc>
    <defs></defs>
    <g id="[DASHBOARD]MESSAGERIE" stroke="none" stroke-width="1" fill="none" fill-rule="evenodd">
        <g id="Group" transform="translate(5.000000, 8.000000)" fill="#D60968" fill-rule="nonzero">
            <path d="M8.26065698,0.126772533 C7.28128605,0.126772533 6.40693953,0.6277752 5.82969767,1.39428987 C5.75292898,1.49292984 5.73518075,1.624867 5.78318149,1.74008279 C5.83118222,1.85529857 5.93758355,1.9361547 6.06204776,1.95199788 C6.18651196,1.96784106 6.30998495,1.91624588 6.38565698,1.81677253 C6.85083837,1.19908187 7.52351163,0.820105867 8.26065698,0.820105867 L24.6451047,0.820105867 C26.2111081,0.820105867 27.3667605,1.4671592 28.1443779,2.32595653 C28.9219953,3.1847192 29.2999012,4.26500187 29.2999012,5.04510587 L29.2999012,13.83096 C29.2999012,15.0961547 28.5861802,16.1631253 27.6429244,16.5501093 C27.5155819,16.5876349 27.4207286,16.6937648 27.3982612,16.8238594 C27.3757937,16.953954 27.4296104,17.0854408 27.5370751,17.1630147 C27.6445399,17.2405886 27.7870068,17.25079 27.9045523,17.189328 C29.1434267,16.6810453 29.9975756,15.3548027 29.9975756,13.83096 L29.9975756,5.04510587 C29.9975756,4.04850853 29.5487267,2.84519387 28.6567326,1.86010587 C27.7647384,0.875017867 26.4079012,0.126772533 24.6451047,0.126772533 L8.26065698,0.126772533 Z" id="Shape"></path>
            <path d="M3.5235,3.05516987 C1.56253256,3.05516987 0.0024244186,4.85159653 0.0024244186,6.9876872 L0.0024244186,17.030208 C0.0024244186,18.8355787 1.13020465,20.3447227 2.66230814,20.7893573 L1.48498256,25.350208 C1.45148121,25.4891857 1.50722186,25.6343525 1.62536998,25.7158228 C1.74351811,25.797293 1.8998638,25.7983724 2.01913953,25.7185413 L8.82146512,20.9735413 L22.8948663,20.9735413 C24.8588791,20.9735413 26.4159419,19.1694533 26.4159419,17.030208 L26.4159419,6.9876872 C26.4159419,4.85159653 24.8588791,3.05516987 22.8948663,3.05516987 L3.5235,3.05516987 Z M3.5235,3.7485032 L22.8948663,3.7485032 C24.4264395,3.7485032 25.7182674,5.18467387 25.7182674,6.9876872 L25.7182674,17.030208 C25.7182674,18.8369653 24.4264395,20.280208 22.8948663,20.280208 L8.71245349,20.280208 C8.64308309,20.2784628 8.57476492,20.2973159 8.51623256,20.3343573 L2.40068023,24.6026907 L3.41448837,20.670208 C3.44045993,20.5749861 3.42437989,20.473278 3.37027588,20.390559 C3.31617186,20.3078399 3.2291686,20.2519451 3.13105814,20.2368747 C1.78709651,20.0199307 0.700098837,18.6794747 0.700098837,17.030208 L0.700098837,6.9876872 C0.700098837,5.18467387 1.99583023,3.7485032 3.5235,3.7485032 Z" id="Shape"></path>
            <path d="M6.41836047,7.85095653 C6.29373293,7.85869728 6.18272783,7.93192432 6.12715972,8.04305374 C6.07159161,8.15418317 6.07990261,8.28633176 6.14896204,8.38972043 C6.21802148,8.49310909 6.33733758,8.55203063 6.46196512,8.54428987 L19.9467035,8.54428987 C20.0725067,8.54605797 20.1895226,8.4803731 20.2529434,8.37238728 C20.3163642,8.26440146 20.3163642,8.13084494 20.2529434,8.02285912 C20.1895226,7.9148733 20.0725067,7.84918843 19.9467035,7.85095653 L6.46196512,7.85095653 C6.44744445,7.85005296 6.43288113,7.85005296 6.41836047,7.85095653 Z" id="Shape"></path>
            <path d="M6.41836047,10.9601059 C6.29373293,10.9678466 6.18272783,11.0410737 6.12715972,11.1522031 C6.07159161,11.2633325 6.07990261,11.3954811 6.14896204,11.4988698 C6.21802148,11.6022584 6.33733758,11.66118 6.46196512,11.6534392 L19.9467035,11.6534392 C20.0725067,11.6552073 20.1895226,11.5895224 20.2529434,11.4815366 C20.3163642,11.3735508 20.3163642,11.2399943 20.2529434,11.1320085 C20.1895226,11.0240226 20.0725067,10.9583378 19.9467035,10.9601059 L6.46196512,10.9601059 C6.44744445,10.9592023 6.43288113,10.9592023 6.41836047,10.9601059 Z" id="Shape"></path>
            <path d="M6.38567442,14.61096 C6.26102054,14.624475 6.15309582,14.7030631 6.10256737,14.8171115 C6.05203892,14.9311598 6.06658612,15.0633352 6.14072744,15.1638327 C6.21486876,15.2643301 6.33733611,15.3178759 6.46198256,15.3042933 L19.9467209,15.3042933 C20.0725242,15.3060614 20.18954,15.2403766 20.2529608,15.1323907 C20.3163817,15.0244049 20.3163817,14.8908484 20.2529608,14.7828626 C20.18954,14.6748768 20.0725242,14.6091919 19.9467209,14.61096 L6.46198256,14.61096 C6.43662303,14.6081872 6.41103395,14.6081872 6.38567442,14.61096 Z" id="Shape"></path>
        </g>
    </g>
</svg>