<svg xmlns="http://www.w3.org/2000/svg" viewBox="0 0 32 40"><path style="line-height:normal;text-indent:0;text-align:start;text-decoration-line:none;text-decoration-style:solid;text-decoration-color:#000;text-transform:none;block-progression:tb;isolation:auto;mix-blend-mode:normal" d="M8 3c-1.1 0-2 .9-2 2v22c0 1.1.9 2 2 2h16c1.1 0 2-.9 2-2V8.5a.5.5 0 0 0 0-.008.5.5 0 0 0 0-.008.5.5 0 0 0-.002-.035.5.5 0 0 0-.002-.015.5.5 0 0 0-.195-.34L20.916 3.21a.5.5 0 0 0-.008-.01.5.5 0 0 0-.408-.2H8zm0 1h12v3c0 1.1.9 2 2 2h3v18c0 .563-.437 1-1 1H8c-.563 0-1-.437-1-1V5c0-.563.437-1 1-1zm13 .707L24.293 8H22c-.563 0-1-.437-1-1V4.707zM10.457 14a.5.5 0 0 0 .05 1H21.5a.5.5 0 1 0 0-1H10.508a.5.5 0 0 0-.051 0zm0 2a.5.5 0 0 0 .05 1H21.5a.5.5 0 1 0 0-1H10.508a.5.5 0 0 0-.051 0zm0 2a.5.5 0 0 0 .05 1H21.5a.5.5 0 1 0 0-1H10.508a.5.5 0 0 0-.051 0zm0 2a.5.5 0 0 0 .05 1H17.5a.5.5 0 1 0 0-1h-6.992a.5.5 0 0 0-.051 0zm8.992 0a.5.5 0 0 0 .051 1 .5.5 0 1 0 0-1 .5.5 0 0 0-.05 0z" color="#000" font-weight="400" font-family="sans-serif" white-space="normal" overflow="visible"/><text y="47" font-size="5" font-weight="bold" font-family="'Helvetica Neue', Helvetica, Arial-Unicode, Arial, Sans-serif">Created by Chameleon Design</text><text y="52" font-size="5" font-weight="bold" font-family="'Helvetica Neue', Helvetica, Arial-Unicode, Arial, Sans-serif">from the Noun Project</text></svg>