<?xml version="1.0" encoding="UTF-8"?>
<svg width="81px" height="87px" viewBox="0 0 81 87" version="1.1" xmlns="http://www.w3.org/2000/svg" xmlns:xlink="http://www.w3.org/1999/xlink">
    <!-- Generator: Sketch 49.1 (51147) - http://www.bohemiancoding.com/sketch -->
    <title>[DASHBOARD]AIDESERVICE</title>
    <desc>Created with Sketch.</desc>
    <defs></defs>
    <g id="[DASHBOARD]AIDESERVICE" stroke="none" stroke-width="1" fill="none" fill-rule="evenodd">
        <g id="noun_171140_cc" transform="translate(11.000000, 19.000000)" fill="#FFFFFF" fill-rule="nonzero">
            <path d="M42.1065089,11.0117647 C45.1597633,11.0117647 47.6449704,8.54117647 47.6449704,5.50588235 C47.6449704,2.47058824 45.1597633,0 42.1065089,0 C39.0532544,0 36.5680473,2.47058824 36.5680473,5.50588235 C36.4970414,8.54117647 38.9822485,11.0117647 42.1065089,11.0117647 Z M42.1065089,2.4 C43.8106509,2.4 45.1597633,3.81176471 45.1597633,5.43529412 C45.1597633,7.05882353 43.739645,8.47058824 42.1065089,8.47058824 C40.4733728,8.47058824 39.0532544,7.05882353 39.0532544,5.43529412 C39.0532544,3.81176471 40.4023669,2.4 42.1065089,2.4 Z M58.7218935,24.9176471 L51.9763314,24.9176471 C50.7692308,15.3176471 45.9408284,13.2705882 42.1065089,13.2705882 C38.2011834,13.2705882 33.443787,15.3176471 32.2366864,24.9176471 L28.6153846,24.9176471 C26.0591716,20.3294118 22.4378698,19.0588235 19.2426036,19.0588235 C16.1183432,19.0588235 12.4260355,20.2588235 9.86982249,24.9176471 L1.20710059,24.9176471 C0.49704142,24.9176471 0,25.4823529 0,26.1176471 C0,26.8235294 0.568047337,27.3176471 1.20710059,27.3176471 L8.73372781,27.3176471 C7.81065089,29.7176471 7.10059172,32.8235294 6.81656805,36.7764706 C6.81656805,36.9176471 6.81656805,37.0588235 6.88757396,37.2 C6.74556213,37.7647059 7.0295858,38.4 7.59763314,38.6823529 C11.2899408,40.1647059 15.1952663,40.1372433 19.2426036,40.1372433 C23.2899408,40.1372433 27.1952663,40.1647059 30.887574,38.6823529 C31.4556213,38.4705882 31.739645,37.8352941 31.5976331,37.2 C31.6686391,37.0588235 31.6686391,36.9176471 31.6686391,36.7764706 C31.3136095,32.8235294 30.6745562,29.7882353 29.7514793,27.3176471 L58.7928994,27.3176471 C59.5029586,27.3176471 60,26.7529412 60,26.1176471 C60,25.4823529 59.4319527,24.9176471 58.7218935,24.9176471 Z M9.30177515,36.7764706 C9.72781065,32.3294118 10.5798817,28.8 12,26.2588235 C13.704142,23.0823529 16.1183432,21.6 19.2426036,21.6 C22.4378698,21.6 24.7810651,23.1529412 26.4852071,26.2588235 C27.9053254,28.8 28.7573964,32.3294118 29.183432,36.7764706 C25.9881657,37.9764706 22.6508876,38.5411765 19.2426036,38.5411765 C15.8343195,38.5411765 12.4970414,37.9764706 9.30177515,36.7764706 Z M42.1065089,15.7411765 C46.1538462,15.7411765 48.6390533,18.8470588 49.4911243,24.9176471 L34.7218935,24.9176471 C35.5029586,18.8470588 37.9881657,15.7411765 42.1065089,15.7411765 Z M31.5976331,44.1176471 C31.8816568,44.7529412 31.5266272,45.4588235 30.887574,45.7411765 C27.1952663,47.2235294 23.2899408,48 19.2426036,48 C15.1952663,48 11.2899408,47.2235294 7.59763314,45.7411765 C6.95857988,45.4588235 6.67455621,44.7529412 6.88757396,44.1176471 C7.17159763,43.4823529 7.8816568,43.2 8.52071006,43.4117647 C11.9289941,44.8235294 15.5502959,45.5294118 19.2426036,45.5294118 C22.9349112,45.5294118 26.556213,44.8235294 29.964497,43.4117647 C30.6035503,43.2 31.3136095,43.5529412 31.5976331,44.1176471 Z M19.2426036,16.5176471 C23.0059172,16.5176471 25.9881657,13.4823529 25.9881657,9.81176471 C25.9881657,6.07058824 22.9349112,3.10588235 19.2426036,3.10588235 C15.4792899,3.10588235 12.4970414,6.14117647 12.4970414,9.81176471 C12.4260355,13.4823529 15.4792899,16.5176471 19.2426036,16.5176471 Z M19.2426036,5.50588235 C21.5857988,5.50588235 23.5029586,7.41176471 23.5029586,9.74117647 C23.5029586,12.0705882 21.5857988,13.9764706 19.2426036,13.9764706 C16.8994083,13.9764706 14.9822485,12.0705882 14.9822485,9.74117647 C14.9112426,7.48235294 16.8994083,5.50588235 19.2426036,5.50588235 Z" id="Shape"></path>
        </g>
    </g>
</svg>