<?xml version="1.0" encoding="UTF-8"?>
<svg width="53px" height="54px" viewBox="0 0 53 54" version="1.1" xmlns="http://www.w3.org/2000/svg" xmlns:xlink="http://www.w3.org/1999/xlink">
    <!-- Generator: Sketch 50.2 (55047) - http://www.bohemiancoding.com/sketch -->
    <title>[DASHBOARD]AIDESERVICE(hover)</title>
    <desc>Created with Sketch.</desc>
    <defs></defs>
    <g id="[DASHBOARD]AIDESERVICE(hover)" stroke="none" stroke-width="1" fill="none" fill-rule="evenodd">
        <g id="Aide&amp;Service" transform="translate(1.000000, 7.000000)" fill="#FFFFFF" fill-rule="nonzero">
            <path d="M1.10511038,26.4240595 L5.45029691,26.4240595 C5.96316931,27.5743964 6.88203935,28.3899495 8.01086455,28.6763054 C7.15017486,31.9251825 10.0155569,35.0203537 12.9182503,33.8798428 C13.471596,36.2626334 15.8045014,37.6291409 17.8895079,36.8213083 C18.6072763,39.9494666 22.2397536,41.0310219 24.2899784,38.7528074 L24.9211087,38.0523582 L25.552239,38.7528074 C26.2763313,39.556429 27.2382043,40 28.2607871,40 C29.9853284,40 31.5321668,38.678411 31.9552391,36.8213083 C34.2116247,37.7000281 36.7032613,36.0057552 37.0131348,33.3695957 C39.4377375,33.7464907 41.5676441,31.4872263 41.3387171,28.7773723 C42.6629524,28.6405109 43.8063227,27.7407355 44.3919205,26.4233577 L48.893941,26.4233577 C50.3686863,26.4233577 50.3686863,23.8861595 48.893941,23.8861595 L44.7454294,23.8861595 C44.6252743,23.0263897 44.277457,22.2003088 43.6817409,21.5377597 L39.5812912,16.9855418 C37.1636449,14.3030601 32.9013021,16.3721224 33.0701516,20.1803762 C30.7062588,20.2982875 29.0038513,22.829169 29.5356955,25.3775969 C27.6239652,25.7832678 26.3035243,27.7695115 26.4818597,29.9122684 C23.7979751,30.1712521 22.2043395,33.4615385 23.4482606,36.0983998 L22.6723118,36.9581696 C21.2652328,38.5197923 19.0828374,36.106822 20.4848573,34.5388827 L26.4224146,27.9491859 C27.4646017,26.7925323 25.8481999,24.9964907 24.8053804,26.154548 L17.7162317,34.0237226 L17.7149669,34.0237226 C17.4234328,34.3486805 17.0357746,34.5269512 16.6228206,34.5269512 C15.2701276,34.5283549 14.5820817,32.6544076 15.5344687,31.5974172 L22.6217202,23.7317518 C23.6639073,22.5750983 22.0462407,20.7790567 21.004686,21.937114 L12.7576219,31.0906794 C11.3480133,32.6558113 9.16688273,30.2274003 10.5764913,28.6629702 L18.8210259,19.5129141 C19.8632129,18.3562605 18.2468111,16.5595171 17.2039917,17.7182762 L9.95737657,25.7608085 C8.54776796,27.3196238 6.36916695,24.8961258 7.77751077,23.3330994 L19.0221275,10.8527513 L24.8136016,10.8527513 C26.9093588,13.0404267 29.8835128,14.8877035 32.8564021,14.203397 C34.1616655,13.9023021 35.4340444,13.0565693 35.9880224,11.6598821 C36.5856358,10.1523021 36.0999564,8.50294778 35.0862271,7.37857945 L30.7252307,2.53860191 L34.3292502,2.53860191 C34.9622776,2.53860191 35.6262925,3.27274003 36.0683366,3.69385177 C36.7721923,4.36412128 37.4305156,5.09194273 38.1160318,5.78537339 C39.3681741,7.05362156 40.8802307,8.49241999 42.6749679,8.49241999 L48.893941,8.49241999 C50.3686863,8.49241999 50.3686863,5.95451993 48.893941,5.95451993 L42.6749679,5.95451993 C41.9394924,5.95451993 41.2387987,5.36566536 40.6873502,4.88700168 C39.9860241,4.27849523 39.3435107,3.58857383 38.6953057,2.91339135 C37.5196833,1.68725435 36.072131,0 34.3292502,0 L26.4527696,0 C26.4508724,0 26.4489752,0.000701852892 26.4464456,0.000701852892 L15.6698012,0.000701852892 C13.9269204,0.000701852892 12.4793681,1.6879562 11.3037457,2.91339135 C10.6055815,3.64191465 9.91437371,4.38868613 9.1460137,5.02807412 C8.6331413,5.45480067 7.99505467,5.95451993 7.3240835,5.95451993 L1.10511038,5.95451993 C-0.368370128,5.95451993 -0.368370128,8.49241999 1.10511038,8.49241999 L7.3240835,8.49241999 C9.11882071,8.49241999 10.6308773,7.05291971 11.8830196,5.78537339 C12.5685358,5.09194273 13.2268591,4.36412128 13.9307148,3.69385177 C14.3727589,3.27274003 15.0374062,2.53860191 15.6698012,2.53860191 L26.4527696,2.53860191 C27.3185184,2.53860191 27.7112358,2.78214486 28.065377,3.17448063 L33.4698253,9.17251544 C34.4759658,10.2870578 33.6589114,11.3875632 32.5054228,11.6893599 C32.0260673,11.8142897 31.5220485,11.8213083 31.0357366,11.7588433 C30.1029539,11.6381246 29.2125417,11.2471926 28.4075027,10.7229085 C27.8282289,10.3460135 27.2875311,9.89752948 26.781615,9.40833801 C26.3345117,8.97529478 25.9297789,8.3134475 25.2777795,8.3134475 L18.549096,8.3134475 C18.2455464,8.3134475 17.955277,8.44679955 17.7402627,8.68542953 L6.16047657,21.5384615 C5.56539281,22.2003088 5.21820792,23.0270915 5.09678807,23.8868613 L1.10511038,23.8868613 C-0.368370128,23.8868613 -0.368370128,26.4240595 1.10511038,26.4240595 Z M42.0659715,25.7580011 C41.484168,26.4037058 40.4679091,26.4051095 39.8848409,25.7608085 L35.7805969,21.2057833 C34.3716206,19.6413532 36.554016,17.2178551 37.964257,18.7815834 L42.0647067,23.3330994 C42.6673792,24.0019652 42.6673792,25.090539 42.0659715,25.7580011 Z M38.6358606,30.3888265 C38.0331881,31.0562886 37.0542405,31.0576923 36.4522004,30.3888265 L32.1639295,25.629562 C30.7543208,24.0651319 32.9386134,21.6430376 34.3475896,23.206064 C34.3501192,23.2088714 38.6358606,27.9639248 38.6358606,27.9639248 C39.2391655,28.6327906 39.2391655,29.7199607 38.6358606,30.3888265 Z M29.1809219,30.7544919 C27.7725781,29.1900618 29.9556059,26.7665637 31.3639497,28.3309938 C31.3658469,28.3338012 34.3096459,31.6002246 34.3102783,31.6016283 C35.2639301,32.657215 34.5657659,34.5269512 33.2187644,34.5269512 L33.218132,34.5269512 C32.8070752,34.5269512 32.4187847,34.3486805 32.1259857,34.0237226 C32.1253534,34.0216171 29.1834515,30.7572993 29.1809219,30.7544919 Z M25.7286772,35.3593487 C24.777555,34.3037619 25.4649685,32.4326221 26.8182939,32.4326221 C27.2261887,32.4326221 27.6214357,32.6137002 27.9091754,32.9344469 L29.3617869,34.5451993 C30.7492617,36.1131387 28.5738226,38.5204941 27.170538,36.9602751 C27.170538,36.9602751 25.7305744,35.3621561 25.7286772,35.3593487 Z" id="Shape"></path>
        </g>
    </g>
</svg>