<?xml version="1.0" encoding="UTF-8"?>
<svg width="41px" height="33px" viewBox="0 0 41 33" version="1.1" xmlns="http://www.w3.org/2000/svg" xmlns:xlink="http://www.w3.org/1999/xlink">
    <!-- Generator: Sketch 50.2 (55047) - http://www.bohemiancoding.com/sketch -->
    <title>[NAV]Deco HOVER</title>
    <desc>Created with Sketch.</desc>
    <defs></defs>
    <g id="[NAV]Deco-HOVER" stroke="none" stroke-width="1" fill="none" fill-rule="evenodd">
        <g id="Deco" transform="translate(5.000000, 1.000000)" fill="#D60968" fill-rule="nonzero">
            <path d="M15,29.8275862 C6.82758621,29.8275862 0.172413793,23.1724138 0.172413793,15 C0.172413793,6.82758621 6.82758621,0.172413793 15,0.172413793 C23.1724138,0.172413793 29.8275862,6.82758621 29.8275862,15 C29.8275862,23.1724138 23.1724138,29.8275862 15,29.8275862 Z M15,2.24137931 C7.96551724,2.24137931 2.24137931,7.96551724 2.24137931,15 C2.24137931,22.0344828 7.96551724,27.7586207 15,27.7586207 C22.0344828,27.7586207 27.7586207,22.0344828 27.7586207,15 C27.7586207,7.96551724 22.0344828,2.24137931 15,2.24137931 Z M15,23 C10.5862069,23 7,19.4137931 7,15 C7,12.6896552 8,10.4827586 9.75862069,8.96551724 C10.2068966,8.5862069 10.8275862,8.62068966 11.2068966,9.06896552 C11.5862069,9.51724138 11.5517241,10.137931 11.1034483,10.5172414 C8.62068966,12.6551724 8.34482759,16.4137931 10.5172414,18.8965517 C12.6551724,21.3793103 16.4137931,21.6551724 18.8965517,19.4827586 C21.3793103,17.3103448 21.6551724,13.5862069 19.4827586,11.1034483 C19.3103448,10.8965517 19.1034483,10.6896552 18.8965517,10.5172414 C18.4482759,10.137931 18.4137931,9.48275862 18.7931034,9.06896552 C19.1724138,8.65517241 19.8275862,8.5862069 20.2413793,8.96551724 C23.5862069,11.862069 23.9310345,16.9310345 21.0344828,20.2413793 C19.5172414,22 17.3103448,23 15,23 Z M15,13.6206897 C14.4137931,13.6206897 13.9655172,13.1724138 13.9655172,12.5862069 L13.9655172,6.37931034 C13.9655172,5.79310345 14.4137931,5.34482759 15,5.34482759 C15.5862069,5.34482759 16.0344828,5.79310345 16.0344828,6.37931034 L16.0344828,12.5862069 C16.0344828,13.137931 15.5862069,13.6206897 15,13.6206897 Z" id="Shape"></path>
        </g>
    </g>
</svg>