<?xml version="1.0" encoding="UTF-8"?>
<svg width="88px" height="90px" viewBox="0 0 88 90" version="1.1" xmlns="http://www.w3.org/2000/svg" xmlns:xlink="http://www.w3.org/1999/xlink">
    <!-- Generator: Sketch 50 (54983) - http://www.bohemiancoding.com/sketch -->
    <title>add-file</title>
    <desc>Created with Sketch.</desc>
    <defs></defs>
    <g id="Page-1" stroke="none" stroke-width="1" fill="none" fill-rule="evenodd">
        <g id="add-file" fill="#000000" fill-rule="nonzero">
            <path d="M68.844,42.753 L68.844,12.188 C68.844,5.468 63.376,0 56.656,0 L12.594,0 C5.874,0 0.406,5.468 0.406,12.188 L0.406,68.438 C0.406,75.159 5.874,80.626 12.594,80.626 L44.723,80.626 C49.098,86.318 55.969,90 63.688,90 C76.871,90 87.594,79.275 87.594,66.094 C87.594,54.684 79.555,45.119 68.844,42.753 Z M41.51,75 L12.594,75 C8.976,75 6.031,72.057 6.031,68.437 L6.031,12.187 C6.031,8.569 8.975,5.624 12.594,5.624 L56.657,5.624 C60.275,5.624 63.22,8.568 63.22,12.187 L63.22,42.198 C50.253,42.451 39.782,53.068 39.782,66.094 C39.782,69.241 40.399,72.244 41.51,75 Z M63.688,84.375 C53.608,84.375 45.408,76.174 45.408,66.094 C45.408,56.014 53.608,47.813 63.688,47.813 C73.768,47.813 81.969,56.014 81.969,66.094 C81.969,76.174 73.768,84.375 63.688,84.375 Z" id="Shape"></path>
            <path d="M72.125,63.281 L66.5,63.281 L66.5,57.656 C66.5,56.101 65.241,54.843 63.687,54.843 C62.132,54.843 60.874,56.102 60.874,57.656 L60.874,63.281 L55.25,63.281 C53.695,63.281 52.437,64.539 52.437,66.094 C52.437,67.647 53.695,68.907 55.25,68.907 L60.875,68.907 L60.875,74.532 C60.875,76.085 62.134,77.345 63.688,77.345 C65.243,77.345 66.501,76.084 66.501,74.532 L66.501,68.907 L72.126,68.907 C73.68,68.907 74.939,67.646 74.939,66.094 C74.938,64.539 73.68,63.281 72.125,63.281 Z" id="Shape"></path>
            <path d="M20.094,24.375 L49.157,24.375 C50.711,24.375 51.97,23.115 51.97,21.562 C51.97,20.007 50.71,18.749 49.157,18.749 L20.094,18.749 C18.54,18.749 17.281,20.007 17.281,21.562 C17.281,23.115 18.54,24.375 20.094,24.375 Z" id="Shape"></path>
            <path d="M51.971,37.968 C51.971,36.413 50.711,35.155 49.158,35.155 L20.094,35.155 C18.54,35.155 17.281,36.413 17.281,37.968 C17.281,39.521 18.54,40.781 20.094,40.781 L49.157,40.781 C50.711,40.781 51.971,39.521 51.971,37.968 Z" id="Shape"></path>
            <path d="M35.094,51.563 L20.094,51.563 C18.54,51.563 17.281,52.821 17.281,54.376 C17.281,55.93 18.54,57.189 20.094,57.189 L35.094,57.189 C36.648,57.189 37.907,55.929 37.907,54.376 C37.906,52.82 36.647,51.563 35.094,51.563 Z" id="Shape"></path>
        </g>
    </g>
</svg>